<svg xmlns="http://www.w3.org/2000/svg" viewBox="0 0 24 24" fill="#FFFFFF">
  <path d="M12 9.229c1.671 0 3.028-1.356 3.028-3.029 0-1.671-1.357-3.028-3.028-3.028-1.672 0-3.029 1.357-3.029 3.028 0 1.673 1.357 3.029 3.029 3.029zm0 2.71c-3.578 0-6.734 2.115-7.994 5.39a.97.97 0 001.216 1.258.983.983 0 00.598-.67c.974-2.529 3.428-4.148 6.18-4.148s5.206 1.62 6.18 4.149a.987.987 0 001.217.653.978.978 0 00.597-.674c-1.26-3.275-4.417-5.388-7.994-5.388zm4.49 5.86a.978.978 0 00-1.383.14l-3.107 3.967-3.107-3.967A.978.978 0 107.36 18.06l3.661 4.673a1.22 1.22 0 001.956 0l3.66-4.673a.98.98 0 00-.148-1.382z"/>
</svg>
