<svg xmlns="http://www.w3.org/2000/svg" viewBox="0 0 24 24" fill="#FFFFFF">
  <path d="M23.45 5.948c.166-.55 0-.948-.795-.948h-2.625c-.668 0-.976.347-1.143.73 0 0-1.336 3.248-3.23 5.358-.612.612-.89.807-1.224.807-.167 0-.412-.195-.412-.751V5.948c0-.663-.195-.948-.752-.948h-4.13c-.418 0-.668.309-.668.6 0 .628.94 1.72 1.036 2.279.106.334.106.594 0 .927-.245.751-1.036 1.484-1.95 2.502C6.9 9.871 5.3 7.828 4.2 5.948c-.22-.38-.528-.73-1.127-.73H.48c-.75 0-.9.35-.9.73 0 .685.877 4.1 4.075 8.577C5.787 17.5 8.65 19 11.24 19c1.56 0 1.754-.35 1.754-.954v-2.351c0-.709.15-1.026.65-1.026.368 0 .99.184 2.453 1.597C17.773 17.871 18.05 19 19 19h2.625c.75 0 1.125-.375.908-1.116-.237-.737-1.088-1.802-2.213-3.072-.612-.722-.918-1.201-.265-1.968 0 0 3.203-4.509 3.528-5.948z"/>
</svg>
